Coordinates
version=1
nRows=26
nColumns=30
inDegrees=yes

Units are S.I. units (second, meters, Newtons, ...)
Angles are in degrees.

endheader
time	floatyaw	floatroll	floatpitch	floatx	floaty	floatz	pro_sup_l	deviation_l	flexion_l	cmc_flexion_l	cmc_abduction_l	mp_flexion_l	ip_flexion_l	2mcp_flexion_l	2mcp_abduction_l	2pm_flexion_l	2md_flexion_l	3mcp_flexion_l	3mcp_abduction_l	3pm_flexion_l	3md_flexion_l	4mcp_flexion_l	4mcp_abduction_l	4pm_flexion_l	4md_flexion_l	5mcp_flexion_l	5mcp_abduction_l	5pm_flexion_l	5md_flexion_l
-0.995000	-1.096539	-4.139632	93.798009	-0.009679	-0.265144	-0.003612	89.161181	1.063108	-2.087481	24.022725	2.862527	-17.948634	-28.865427	20.190049	5.782786	30.403634	20.409621	10.015791	4.469028	33.646305	21.712150	-0.920465	-3.944013	50.587651	33.067613	-21.157237	-7.646302	60.856399	49.950650
-0.985000	-1.096539	-4.139632	93.798009	-0.009666	-0.265135	-0.003636	89.177228	1.078140	-2.092687	23.991505	2.859452	-17.925534	-28.832036	20.194730	5.779935	30.420736	20.398506	10.008322	4.472217	33.671803	21.701382	-0.915825	-3.941628	50.601908	33.058312	-21.152294	-7.658326	60.878856	49.946595
-0.975000	-1.096539	-4.139632	93.798009	-0.009650	-0.265118	-0.003664	89.196249	1.094386	-2.096726	23.962640	2.851876	-17.902489	-28.787012	20.198038	5.776660	30.442782	20.387390	10.003172	4.477429	33.694921	21.694481	-0.907657	-3.935865	50.619864	33.047973	-21.144083	-7.671334	60.886314	49.952242
-0.965000	-1.096539	-4.139632	93.798009	-0.009632	-0.265096	-0.003693	89.210424	1.109935	-2.097212	23.934437	2.844332	-17.882584	-28.730268	20.201411	5.773054	30.462043	20.379529	10.000299	4.483810	33.713592	21.693264	-0.906288	-3.931425	50.646319	33.037335	-21.138537	-7.679229	60.887773	49.964658
-0.955000	-1.096539	-4.139632	93.798009	-0.009619	-0.265073	-0.003719	89.217627	1.122813	-2.092495	23.906373	2.832609	-17.867842	-28.663550	20.206374	5.769723	30.466165	20.376851	9.998354	4.490980	33.721814	21.699112	-0.918420	-3.932331	50.676507	33.027286	-21.139833	-7.676900	60.889316	49.973479
-0.945000	-1.096539	-4.139632	93.798009	-0.009618	-0.265052	-0.003732	89.221863	1.131496	-2.082798	23.880336	2.807144	-17.859010	-28.592534	20.213700	5.767717	30.444128	20.381004	9.996265	4.498851	33.711122	21.714161	-0.942079	-3.939859	50.696179	33.020431	-21.148701	-7.662806	60.890482	49.965549
-0.935000	-1.096539	-4.139632	93.798009	-0.009632	-0.265037	-0.003727	89.229279	1.134829	-2.070413	23.860988	2.762106	-17.856443	-28.528217	20.222840	5.768216	30.394260	20.393462	9.994396	4.507159	33.675781	21.740765	-0.965986	-3.952153	50.688137	33.021187	-21.162542	-7.639842	60.885606	49.932657
-0.925000	-1.096539	-4.139632	93.798009	-0.009660	-0.265027	-0.003701	89.242983	1.131698	-2.058573	23.854469	2.703336	-17.860930	-28.484708	20.231630	5.771995	30.329282	20.414218	9.994301	4.515063	33.618774	21.779073	-0.974563	-3.965685	50.642278	33.033784	-21.176837	-7.614159	60.868821	49.878178
-0.915000	-1.096539	-4.139632	93.798009	-0.009690	-0.265016	-0.003659	89.260765	1.121048	-2.049601	23.865815	2.648706	-17.873538	-28.473243	20.236384	5.778967	30.274088	20.440400	9.997252	4.521139	33.554092	21.824600	-0.956156	-3.977542	50.563223	33.059326	-21.186410	-7.592637	60.838915	49.818019
-0.905000	-1.096539	-4.139632	93.798009	-0.009710	-0.264995	-0.003608	89.277010	1.102491	-2.043543	23.896065	2.620074	-17.894433	-28.495389	20.232819	5.788068	30.255600	20.466646	10.002652	4.523856	33.502548	21.868323	-0.909907	-3.987095	50.470297	33.093990	-21.186040	-7.580308	60.800433	49.773869
-0.895000	-1.096539	-4.139632	93.798009	-0.009710	-0.264957	-0.003551	89.286403	1.077090	-2.038245	23.940124	2.632350	-17.921579	-28.539732	20.218297	5.797554	30.289059	20.487586	10.007725	4.522383	33.482545	21.900133	-0.847156	-3.996102	50.389169	33.129662	-21.170972	-7.578806	60.760208	49.761497
-0.885000	-1.096539	-4.139632	93.798009	-0.009688	-0.264901	-0.003488	89.285984	1.047775	-2.030962	23.986580	2.687218	-17.950389	-28.585091	20.194883	5.805629	30.368532	20.500675	10.009382	4.517301	33.500969	21.913618	-0.785870	-4.007332	50.339862	33.156650	-21.137547	-7.586250	60.722125	49.780847
-0.875000	-1.096539	-4.139632	93.798009	-0.009652	-0.264834	-0.003413	89.274488	1.019259	-2.020467	24.020325	2.774867	-17.974871	-28.609606	20.171269	5.811122	30.467990	20.506955	10.007758	4.510750	33.549576	21.908780	-0.740631	-4.022620	50.328170	33.166917	-21.083288	-7.598161	60.684431	49.814494
-0.865000	-1.096539	-4.139632	93.798009	-0.009610	-0.264770	-0.003325	89.250724	0.997566	-2.007999	24.027385	2.880735	-17.989767	-28.600776	20.161212	5.813807	30.553000	20.508932	10.009206	4.505767	33.608553	21.890784	-0.713998	-4.041478	50.345006	33.156506	-21.006285	-7.608796	60.641587	49.835934
-0.855000	-1.096539	-4.139632	93.798009	-0.009568	-0.264718	-0.003226	89.213168	0.989101	-1.996040	23.999518	2.991433	-17.992309	-28.559945	20.178034	5.814100	30.596322	20.507230	10.025902	4.505000	33.654642	21.865974	-0.695014	-4.060927	50.372982	33.126567	-20.904916	-7.612491	60.588575	49.822678
-0.845000	-1.096539	-4.139632	93.798009	-0.009525	-0.264679	-0.003123	89.161124	0.999051	-1.985714	23.935994	3.096766	-17.982411	-28.498244	20.227886	5.812371	30.588618	20.498800	10.070819	4.509370	33.669650	21.838401	-0.666295	-4.076508	50.395615	33.082987	-20.779089	-7.605087	60.523949	49.766243
-0.835000	-1.096539	-4.139632	93.798009	-0.009475	-0.264643	-0.003027	89.096316	1.029421	-1.975099	23.842233	3.189063	-17.961482	-28.427548	20.306239	5.808518	30.539290	20.478084	10.150234	4.517480	33.646274	21.809110	-0.615275	-4.083907	50.404213	33.034691	-20.632519	-7.585589	60.449664	49.674035
-0.825000	-1.096539	-4.139632	93.798009	-0.009409	-0.264595	-0.002944	89.023827	1.077790	-1.960279	23.727529	3.262568	-17.931365	-28.353971	20.400479	5.802168	30.468617	20.440211	10.258581	4.526244	33.589715	21.777854	-0.542239	-4.080566	50.399689	32.990979	-20.474271	-7.557435	60.368929	49.563882
-0.815000	-1.096539	-4.139632	93.798009	-0.009325	-0.264526	-0.002868	88.952071	1.137866	-1.938686	23.603864	3.314009	-17.894642	-28.278682	20.497347	5.793283	30.396497	20.384130	10.379639	4.532500	33.514763	21.745275	-0.460052	-4.066805	50.389471	32.958774	-20.318288	-7.527967	60.284874	49.455889
-0.805000	-1.096539	-4.139632	93.798009	-0.009225	-0.264437	-0.002784	88.891591	1.201784	-1.912122	23.485270	3.343570	-17.855714	-28.203637	20.590384	5.782700	30.333590	20.313989	10.493912	4.534627	33.439378	21.713980	-0.386138	-4.046105	50.381612	32.940717	-20.180953	-7.505458	60.201322	49.365950
-0.795000	-1.096539	-4.139632	93.798009	-0.009115	-0.264342	-0.002669	88.852481	1.262811	-1.886781	23.385456	3.355105	-17.820904	-28.135245	20.682337	5.772303	30.278433	20.238222	10.587541	4.533171	33.377521	21.688213	-0.332009	-4.024247	50.379068	32.934727	-20.077156	-7.495021	60.124076	49.302412
-0.785000	-1.096539	-4.139632	93.798009	-0.008999	-0.264254	-0.002505	88.841002	1.316981	-1.869826	23.313147	3.355056	-17.796559	-28.081662	20.781001	5.764748	30.221087	20.166957	10.657275	4.530177	33.334689	21.672641	-0.296417	-4.007332	50.376721	32.935145	-20.015112	-7.496037	60.060158	49.265297
-0.775000	-1.096539	-4.139632	93.798009	-0.008880	-0.264181	-0.002283	88.856995	1.363228	-1.864715	23.267829	3.350377	-17.786110	-28.046296	20.891704	5.762894	30.151052	20.109110	10.709419	4.527762	33.308100	21.670884	-0.265209	-3.999324	50.362489	32.935316	-19.991027	-7.502949	60.014384	49.247184
-0.765000	-1.096539	-4.139632	93.798009	-0.008755	-0.264119	-0.002010	88.893507	1.402631	-1.868454	23.239348	3.346578	-17.788144	-28.023725	21.012135	5.769065	30.065093	20.070408	10.755085	4.526889	33.290393	21.684243	-0.217326	-4.000240	50.322167	32.931070	-19.986783	-7.509139	59.985273	49.235336
-0.755000	-1.096539	-4.139632	93.798009	-0.008614	-0.264054	-0.001703	88.938602	1.437596	-1.872524	23.211825	3.347257	-17.796798	-28.001383	21.133525	5.784230	29.970029	20.052488	10.805661	4.527003	33.273679	21.710923	-0.134063	-4.006068	50.246091	32.923784	-19.974496	-7.511546	59.963458	49.215327
-0.745000	-1.096539	-4.139632	93.798009	-0.008446	-0.263970	-0.001384	88.978601	1.471346	-1.866907	23.169197	3.355382	-17.804243	-27.965032	21.247683	5.807238	29.877934	20.052483	10.870871	4.526665	33.251371	21.746011	-0.007724	-4.010723	50.134786	32.921196	-19.928147	-7.512872	59.935184	49.176641
